<?xml version="1.0" encoding="us-ascii" standalone="no"?><svg xmlns="http://www.w3.org/2000/svg" xmlns:xlink="http://www.w3.org/1999/xlink" contentStyleType="text/css" height="418px" preserveAspectRatio="none" style="width:472px;height:418px;background:#FFFFFF;" version="1.1" viewBox="0 0 472 418" width="472px" zoomAndPan="magnify"><defs/><g><!--cluster observer_pattern--><g id="cluster_observer_pattern"><path d="M8.5,6 L148.5,6 A3.75,3.75 0 0 1 151,8.5 L158,28.2969 L462.5,28.2969 A2.5,2.5 0 0 1 465,30.7969 L465,408.5 A2.5,2.5 0 0 1 462.5,411 L8.5,411 A2.5,2.5 0 0 1 6,408.5 L6,8.5 A2.5,2.5 0 0 1 8.5,6 " fill="none" style="stroke:#000000;stroke-width:1.5;"/><line style="stroke:#000000;stroke-width:1.5;" x1="6" x2="158" y1="28.2969" y2="28.2969"/><text fill="#000000" font-family="sans-serif" font-size="14" font-weight="bold" lengthAdjust="spacing" textLength="139" x="10" y="20.9951">observer_pattern</text></g><!--cluster observer_pattern.dart--><g id="cluster_observer_pattern.dart"><path d="M32.5,49 L212.5,49 A3.75,3.75 0 0 1 215,51.5 L222,71.2969 L438.5,71.2969 A2.5,2.5 0 0 1 441,73.7969 L441,384.5 A2.5,2.5 0 0 1 438.5,387 L32.5,387 A2.5,2.5 0 0 1 30,384.5 L30,51.5 A2.5,2.5 0 0 1 32.5,49 " fill="none" style="stroke:#000000;stroke-width:1.5;"/><line style="stroke:#000000;stroke-width:1.5;" x1="30" x2="222" y1="71.2969" y2="71.2969"/><text fill="#000000" font-family="sans-serif" font-size="14" font-weight="bold" lengthAdjust="spacing" textLength="179" x="34" y="63.9951">observer_pattern.dart</text></g><!--class Scoreboard--><g id="elem_Scoreboard"><rect codeLine="3" fill="#F1F1F1" height="145.7813" id="Scoreboard" rx="2.5" ry="2.5" style="stroke:#181818;stroke-width:0.5;" width="222" x="203" y="84"/><ellipse cx="268.25" cy="100" fill="#ADD1B2" rx="11" ry="11" style="stroke:#181818;stroke-width:1.0;"/><path d="M270.5938,95.6719 C269.6563,95.2344 269.0625,95.0938 268.1875,95.0938 C265.5625,95.0938 263.5625,97.1719 263.5625,99.8906 L263.5625,101.0156 C263.5625,103.5938 265.6719,105.4844 268.5625,105.4844 C269.7813,105.4844 270.9375,105.1875 271.6875,104.6406 C272.2656,104.2344 272.5938,103.7813 272.5938,103.3906 C272.5938,102.9375 272.2031,102.5469 271.7344,102.5469 C271.5156,102.5469 271.3125,102.625 271.125,102.8125 C270.6719,103.2969 270.6719,103.2969 270.4844,103.3906 C270.0625,103.6563 269.375,103.7813 268.6094,103.7813 C266.5625,103.7813 265.2656,102.6875 265.2656,100.9844 L265.2656,99.8906 C265.2656,98.1094 266.5156,96.7969 268.25,96.7969 C268.8281,96.7969 269.4375,96.9531 269.9063,97.2031 C270.3906,97.4844 270.5625,97.7031 270.6563,98.1094 C270.7188,98.5156 270.75,98.6406 270.8906,98.7656 C271.0313,98.9063 271.2656,99.0156 271.4844,99.0156 C271.75,99.0156 272.0156,98.875 272.1875,98.6563 C272.2969,98.5 272.3281,98.3125 272.3281,97.8906 L272.3281,96.4688 C272.3281,96.0313 272.3125,95.9063 272.2188,95.75 C272.0625,95.4844 271.7813,95.3438 271.4844,95.3438 C271.1875,95.3438 270.9844,95.4375 270.7656,95.75 L270.5938,95.6719 Z " fill="#000000"/><text fill="#000000" font-family="sans-serif" font-size="14" lengthAdjust="spacing" textLength="83" x="288.75" y="104.8467">Scoreboard</text><line style="stroke:#181818;stroke-width:0.5;" x1="204" x2="424" y1="116" y2="116"/><rect fill="none" height="6" style="stroke:#C82930;stroke-width:1.0;" width="6" x="211" y="126.6484"/><text fill="#000000" font-family="sans-serif" font-size="14" lengthAdjust="spacing" textLength="196" x="223" y="132.9951">List&lt;Observer&gt; _observers</text><rect fill="none" height="6" style="stroke:#C82930;stroke-width:1.0;" width="6" x="211" y="142.9453"/><text fill="#000000" font-family="sans-serif" font-size="14" lengthAdjust="spacing" textLength="113" x="223" y="149.292">int _homeScore</text><rect fill="none" height="6" style="stroke:#C82930;stroke-width:1.0;" width="6" x="211" y="159.2422"/><text fill="#000000" font-family="sans-serif" font-size="14" lengthAdjust="spacing" textLength="107" x="223" y="165.5889">int _awayScore</text><line style="stroke:#181818;stroke-width:0.5;" x1="204" x2="424" y1="172.8906" y2="172.8906"/><ellipse cx="214" cy="186.5391" fill="#84BE84" rx="3" ry="3" style="stroke:#038048;stroke-width:1.0;"/><text fill="#000000" font-family="sans-serif" font-size="14" lengthAdjust="spacing" textLength="136" x="223" y="189.8857">void addObserver()</text><ellipse cx="214" cy="202.8359" fill="#84BE84" rx="3" ry="3" style="stroke:#038048;stroke-width:1.0;"/><text fill="#000000" font-family="sans-serif" font-size="14" lengthAdjust="spacing" textLength="165" x="223" y="206.1826">void removeObserver()</text><ellipse cx="214" cy="219.1328" fill="#84BE84" rx="3" ry="3" style="stroke:#038048;stroke-width:1.0;"/><text fill="#000000" font-family="sans-serif" font-size="14" lengthAdjust="spacing" textLength="143" x="223" y="222.4795">void updateScores()</text></g><!--class Observer--><g id="elem_Observer"><rect codeLine="12" fill="#F1F1F1" height="64.2969" id="Observer" rx="2.5" ry="2.5" style="stroke:#181818;stroke-width:0.5;" width="121" x="46.5" y="125"/><ellipse cx="72.3" cy="141" fill="#A9DCDF" rx="11" ry="11" style="stroke:#181818;stroke-width:1.0;"/><path d="M74.3781,142.8125 L74.7688,143.7969 L74.3781,143.7969 C73.925,143.7969 73.8156,143.8125 73.6594,143.9219 C73.4094,144.0781 73.2531,144.3594 73.2531,144.6563 C73.2531,144.9219 73.3938,145.1719 73.6125,145.3281 C73.7531,145.4531 73.9563,145.5 74.3781,145.5 L76.7375,145.5 C77.0969,145.5 77.3156,145.4688 77.4563,145.375 C77.7063,145.2344 77.8625,144.9375 77.8625,144.6563 C77.8625,144.375 77.7219,144.125 77.5031,143.9688 C77.3313,143.8281 77.175,143.7969 76.7063,143.7969 L73.3156,135.5938 L69.6438,135.5938 C69.1906,135.5938 69.0656,135.6094 68.9094,135.7031 C68.6594,135.875 68.5031,136.1563 68.5031,136.4375 C68.5031,136.7188 68.6438,136.9688 68.8625,137.1406 C69.0344,137.25 69.2063,137.2813 69.6438,137.2813 L70.7219,137.2813 L68.0813,143.7969 C67.6594,143.7969 67.5031,143.8125 67.3469,143.9219 C67.0969,144.0781 66.9406,144.3594 66.9406,144.6563 C66.9406,145.2188 67.3156,145.5 68.0656,145.5 L70.3313,145.5 C70.6906,145.5 70.9094,145.4688 71.0344,145.375 C71.3,145.2344 71.4406,144.9375 71.4406,144.6563 C71.4406,144.375 71.3156,144.125 71.0969,143.9531 C70.925,143.8281 70.7844,143.7969 70.3313,143.7969 L69.9406,143.7969 L70.3313,142.8125 L74.3781,142.8125 Z M73.675,141.1094 L71.0031,141.1094 L72.3469,137.8438 L73.675,141.1094 Z " fill="#000000"/><text fill="#000000" font-family="sans-serif" font-size="14" font-style="italic" lengthAdjust="spacing" textLength="65" x="88.7" y="145.8467">Observer</text><line style="stroke:#181818;stroke-width:0.5;" x1="47.5" x2="166.5" y1="157" y2="157"/><line style="stroke:#181818;stroke-width:0.5;" x1="47.5" x2="166.5" y1="165" y2="165"/><ellipse cx="57.5" cy="178.6484" fill="#84BE84" rx="3" ry="3" style="stroke:#038048;stroke-width:1.0;"/><text fill="#000000" font-family="sans-serif" font-size="14" lengthAdjust="spacing" textLength="95" x="66.5" y="181.9951">void update()</text></g><!--class Fan--><g id="elem_Fan"><rect codeLine="16" fill="#F1F1F1" height="80.5938" id="Fan" rx="2.5" ry="2.5" style="stroke:#181818;stroke-width:0.5;" width="121" x="46.5" y="290"/><ellipse cx="90.3" cy="306" fill="#ADD1B2" rx="11" ry="11" style="stroke:#181818;stroke-width:1.0;"/><path d="M92.6438,301.6719 C91.7063,301.2344 91.1125,301.0938 90.2375,301.0938 C87.6125,301.0938 85.6125,303.1719 85.6125,305.8906 L85.6125,307.0156 C85.6125,309.5938 87.7219,311.4844 90.6125,311.4844 C91.8313,311.4844 92.9875,311.1875 93.7375,310.6406 C94.3156,310.2344 94.6438,309.7813 94.6438,309.3906 C94.6438,308.9375 94.2531,308.5469 93.7844,308.5469 C93.5656,308.5469 93.3625,308.625 93.175,308.8125 C92.7219,309.2969 92.7219,309.2969 92.5344,309.3906 C92.1125,309.6563 91.425,309.7813 90.6594,309.7813 C88.6125,309.7813 87.3156,308.6875 87.3156,306.9844 L87.3156,305.8906 C87.3156,304.1094 88.5656,302.7969 90.3,302.7969 C90.8781,302.7969 91.4875,302.9531 91.9563,303.2031 C92.4406,303.4844 92.6125,303.7031 92.7063,304.1094 C92.7688,304.5156 92.8,304.6406 92.9406,304.7656 C93.0813,304.9063 93.3156,305.0156 93.5344,305.0156 C93.8,305.0156 94.0656,304.875 94.2375,304.6563 C94.3469,304.5 94.3781,304.3125 94.3781,303.8906 L94.3781,302.4688 C94.3781,302.0313 94.3625,301.9063 94.2688,301.75 C94.1125,301.4844 93.8313,301.3438 93.5344,301.3438 C93.2375,301.3438 93.0344,301.4375 92.8156,301.75 L92.6438,301.6719 Z " fill="#000000"/><text fill="#000000" font-family="sans-serif" font-size="14" lengthAdjust="spacing" textLength="25" x="110.7" y="310.8467">Fan</text><line style="stroke:#181818;stroke-width:0.5;" x1="47.5" x2="166.5" y1="322" y2="322"/><rect fill="none" height="6" style="stroke:#C82930;stroke-width:1.0;" width="6" x="54.5" y="332.6484"/><text fill="#000000" font-family="sans-serif" font-size="14" lengthAdjust="spacing" textLength="95" x="66.5" y="338.9951">String _name</text><line style="stroke:#181818;stroke-width:0.5;" x1="47.5" x2="166.5" y1="346.2969" y2="346.2969"/><ellipse cx="57.5" cy="359.9453" fill="#84BE84" rx="3" ry="3" style="stroke:#038048;stroke-width:1.0;"/><text fill="#000000" font-family="sans-serif" font-size="14" lengthAdjust="spacing" textLength="95" x="66.5" y="363.292">void update()</text></g><!--reverse link Observer to Fan--><g id="link_Observer_Fan"><path codeLine="21" d="M107,209.313 C107,235.136 107,265.955 107,289.92 " fill="none" id="Observer-backto-Fan" style="stroke:#181818;stroke-width:1.0;"/><polygon fill="none" points="100,209.057,107,189.057,114,209.057,100,209.057" style="stroke:#181818;stroke-width:1.0;"/></g><!--SRC=[dP1D2i9034RtSuhWIf5wWA6uT2Muw066j1EqO6TA4YkYtbrhVn3ffcvVaiVtHKWXO4LIOq4PrSYeaS5QOuepYi0YvaBS4BiQLOc3jRzauv7Lsgo8J7b4zWku6u1aNugcXtvv2swuatPO1WLtYXLzpaQ2LxmDPDt4qWDwFpYMgv4oLR6XYS6bzgYTLDxuQGpceeo5mjn2Wxshywtln7DzEmpzPpBbCXp1jP-VLFyJCdqaoSmqBm00]--></g></svg>